<mxfile host="65bd71144e">
    <diagram id="fUqwYvK4Wff4LgY5sTU9" name="Page-1">
        <mxGraphModel dx="2043" dy="1059" grid="1" gridSize="10" guides="1" tooltips="1" connect="1" arrows="1" fold="1" page="1" pageScale="1" pageWidth="850" pageHeight="1100" math="0" shadow="0">
            <root>
                <mxCell id="0"/>
                <mxCell id="1" parent="0"/>
                <mxCell id="11" value="&lt;i&gt;Actor&lt;/i&gt;&lt;div&gt;&lt;font style=&quot;font-size: 10px;&quot;&gt;{abstract}&lt;/font&gt;&lt;/div&gt;" style="html=1;whiteSpace=wrap;fontFamily=Cantarell;fontSource=https%3A%2F%2Ffonts.googleapis.com%2Fcss%3Ffamily%3DCantarell;" parent="1" vertex="1">
                    <mxGeometry x="440" y="30" width="110" height="50" as="geometry"/>
                </mxCell>
                <mxCell id="12" value="" style="endArrow=block;endSize=16;endFill=0;html=1;edgeStyle=elbowEdgeStyle;elbow=vertical;rounded=0;curved=0;" parent="1" source="16" target="11" edge="1">
                    <mxGeometry y="-60" width="160" relative="1" as="geometry">
                        <mxPoint x="120" y="400" as="sourcePoint"/>
                        <mxPoint x="280" y="400" as="targetPoint"/>
                        <mxPoint as="offset"/>
                    </mxGeometry>
                </mxCell>
                <mxCell id="16" value="&lt;font&gt;Animation&lt;/font&gt;" style="html=1;whiteSpace=wrap;fontFamily=Cantarell;fontSource=https%3A%2F%2Ffonts.googleapis.com%2Fcss%3Ffamily%3DCantarell;" parent="1" vertex="1">
                    <mxGeometry x="60" y="269" width="110" height="49" as="geometry"/>
                </mxCell>
                <mxCell id="18" value="&lt;span style=&quot;color: rgb(0, 0, 0); text-align: left;&quot;&gt;&lt;i&gt;Geometry&lt;/i&gt;&lt;/span&gt;&lt;div&gt;&lt;span style=&quot;color: rgb(0, 0, 0); text-align: left;&quot;&gt;{abstract}&lt;/span&gt;&lt;/div&gt;" style="html=1;whiteSpace=wrap;fontFamily=Cantarell;fontSource=https%3A%2F%2Ffonts.googleapis.com%2Fcss%3Ffamily%3DCantarell;" parent="1" vertex="1">
                    <mxGeometry x="187" y="269" width="110" height="49" as="geometry"/>
                </mxCell>
                <mxCell id="22" value="&lt;span style=&quot;color: rgb(0, 0, 0); text-align: left;&quot;&gt;Grid&lt;/span&gt;" style="html=1;whiteSpace=wrap;fontFamily=Cantarell;fontSource=https%3A%2F%2Ffonts.googleapis.com%2Fcss%3Ffamily%3DCantarell;" parent="1" vertex="1">
                    <mxGeometry x="313" y="269" width="110" height="49" as="geometry"/>
                </mxCell>
                <mxCell id="23" value="&lt;span style=&quot;color: rgb(0, 0, 0); text-align: left;&quot;&gt;Image&lt;/span&gt;" style="html=1;whiteSpace=wrap;fontFamily=Cantarell;fontSource=https%3A%2F%2Ffonts.googleapis.com%2Fcss%3Ffamily%3DCantarell;fontStyle=0" parent="1" vertex="1">
                    <mxGeometry x="440" y="269" width="110" height="49" as="geometry"/>
                </mxCell>
                <mxCell id="24" value="&lt;span style=&quot;color: rgb(0, 0, 0); text-align: left;&quot;&gt;Line&lt;/span&gt;" style="html=1;whiteSpace=wrap;fontFamily=Cantarell;fontSource=https%3A%2F%2Ffonts.googleapis.com%2Fcss%3Ffamily%3DCantarell;" parent="1" vertex="1">
                    <mxGeometry x="567" y="269" width="110" height="49" as="geometry"/>
                </mxCell>
                <mxCell id="25" value="&lt;span style=&quot;color: rgb(0, 0, 0); text-align: left;&quot;&gt;StatefullAnimation&lt;/span&gt;" style="html=1;whiteSpace=wrap;fontFamily=Cantarell;fontSource=https%3A%2F%2Ffonts.googleapis.com%2Fcss%3Ffamily%3DCantarell;" parent="1" vertex="1">
                    <mxGeometry x="693" y="269" width="110" height="49" as="geometry"/>
                </mxCell>
                <mxCell id="26" value="&lt;span style=&quot;color: rgb(0, 0, 0); text-align: left;&quot;&gt;TileRegistration&lt;/span&gt;" style="html=1;whiteSpace=wrap;fontFamily=Cantarell;fontSource=https%3A%2F%2Ffonts.googleapis.com%2Fcss%3Ffamily%3DCantarell;" parent="1" vertex="1">
                    <mxGeometry x="820" y="269" width="110" height="49" as="geometry"/>
                </mxCell>
                <mxCell id="30" value="" style="endArrow=block;endSize=16;endFill=0;html=1;edgeStyle=elbowEdgeStyle;elbow=vertical;rounded=0;curved=0;" parent="1" source="18" target="11" edge="1">
                    <mxGeometry y="-60" width="160" relative="1" as="geometry">
                        <mxPoint x="125" y="500" as="sourcePoint"/>
                        <mxPoint x="435" y="60" as="targetPoint"/>
                        <mxPoint as="offset"/>
                    </mxGeometry>
                </mxCell>
                <mxCell id="31" value="" style="endArrow=block;endSize=16;endFill=0;html=1;edgeStyle=elbowEdgeStyle;elbow=vertical;rounded=0;curved=0;" parent="1" source="22" target="11" edge="1">
                    <mxGeometry y="-60" width="160" relative="1" as="geometry">
                        <mxPoint x="135" y="510" as="sourcePoint"/>
                        <mxPoint x="445" y="70" as="targetPoint"/>
                        <mxPoint as="offset"/>
                    </mxGeometry>
                </mxCell>
                <mxCell id="32" value="" style="endArrow=block;endSize=16;endFill=0;html=1;edgeStyle=elbowEdgeStyle;elbow=vertical;rounded=0;curved=0;" parent="1" source="23" target="11" edge="1">
                    <mxGeometry y="-60" width="160" relative="1" as="geometry">
                        <mxPoint x="145" y="520" as="sourcePoint"/>
                        <mxPoint x="455" y="80" as="targetPoint"/>
                        <mxPoint as="offset"/>
                    </mxGeometry>
                </mxCell>
                <mxCell id="33" value="" style="endArrow=block;endSize=16;endFill=0;html=1;edgeStyle=elbowEdgeStyle;elbow=vertical;rounded=0;curved=0;" parent="1" source="24" target="11" edge="1">
                    <mxGeometry y="-60" width="160" relative="1" as="geometry">
                        <mxPoint x="155" y="530" as="sourcePoint"/>
                        <mxPoint x="465" y="90" as="targetPoint"/>
                        <mxPoint as="offset"/>
                    </mxGeometry>
                </mxCell>
                <mxCell id="34" value="" style="endArrow=block;endSize=16;endFill=0;html=1;edgeStyle=elbowEdgeStyle;elbow=vertical;rounded=0;curved=0;" parent="1" source="25" target="11" edge="1">
                    <mxGeometry y="-60" width="160" relative="1" as="geometry">
                        <mxPoint x="165" y="540" as="sourcePoint"/>
                        <mxPoint x="475" y="100" as="targetPoint"/>
                        <mxPoint as="offset"/>
                    </mxGeometry>
                </mxCell>
                <mxCell id="35" value="" style="endArrow=block;endSize=16;endFill=0;html=1;edgeStyle=elbowEdgeStyle;elbow=vertical;rounded=0;curved=0;" parent="1" source="26" target="11" edge="1">
                    <mxGeometry y="-60" width="160" relative="1" as="geometry">
                        <mxPoint x="175" y="550" as="sourcePoint"/>
                        <mxPoint x="485" y="110" as="targetPoint"/>
                        <mxPoint as="offset"/>
                    </mxGeometry>
                </mxCell>
                <mxCell id="37" value="&lt;span style=&quot;color: rgb(0, 0, 0); text-align: left;&quot;&gt;Circle&lt;/span&gt;" style="html=1;whiteSpace=wrap;fontFamily=Cantarell;fontSource=https%3A%2F%2Ffonts.googleapis.com%2Fcss%3Ffamily%3DCantarell;" parent="1" vertex="1">
                    <mxGeometry x="-13" y="501" width="110" height="49" as="geometry"/>
                </mxCell>
                <mxCell id="38" value="&lt;span style=&quot;color: rgb(0, 0, 0); text-align: left;&quot;&gt;Polygon&lt;/span&gt;" style="html=1;whiteSpace=wrap;fontFamily=Cantarell;fontSource=https%3A%2F%2Ffonts.googleapis.com%2Fcss%3Ffamily%3DCantarell;" parent="1" vertex="1">
                    <mxGeometry x="120" y="501" width="110" height="49" as="geometry"/>
                </mxCell>
                <mxCell id="39" value="&lt;span style=&quot;color: rgb(0, 0, 0); text-align: left;&quot;&gt;Rectangle&lt;/span&gt;" style="html=1;whiteSpace=wrap;fontFamily=Cantarell;fontSource=https%3A%2F%2Ffonts.googleapis.com%2Fcss%3Ffamily%3DCantarell;" parent="1" vertex="1">
                    <mxGeometry x="254" y="501" width="110" height="49" as="geometry"/>
                </mxCell>
                <mxCell id="40" value="&lt;span style=&quot;color: rgb(0, 0, 0); text-align: left;&quot;&gt;Text&lt;/span&gt;" style="html=1;whiteSpace=wrap;fontFamily=Cantarell;fontSource=https%3A%2F%2Ffonts.googleapis.com%2Fcss%3Ffamily%3DCantarell;" parent="1" vertex="1">
                    <mxGeometry x="387" y="501" width="110" height="49" as="geometry"/>
                </mxCell>
                <mxCell id="41" value="" style="endArrow=block;endSize=16;endFill=0;html=1;edgeStyle=elbowEdgeStyle;elbow=vertical;rounded=0;curved=0;" parent="1" source="37" target="18" edge="1">
                    <mxGeometry y="-60" width="160" relative="1" as="geometry">
                        <mxPoint x="241.55" y="579" as="sourcePoint"/>
                        <mxPoint x="241.55" y="390" as="targetPoint"/>
                        <mxPoint as="offset"/>
                    </mxGeometry>
                </mxCell>
                <mxCell id="42" value="" style="endArrow=block;endSize=16;endFill=0;html=1;edgeStyle=elbowEdgeStyle;elbow=vertical;rounded=0;curved=0;" parent="1" source="38" target="18" edge="1">
                    <mxGeometry y="-60" width="160" relative="1" as="geometry">
                        <mxPoint x="600" y="899" as="sourcePoint"/>
                        <mxPoint x="600" y="710" as="targetPoint"/>
                        <mxPoint as="offset"/>
                    </mxGeometry>
                </mxCell>
                <mxCell id="45" value="" style="endArrow=block;endSize=16;endFill=0;html=1;edgeStyle=elbowEdgeStyle;elbow=vertical;rounded=0;curved=0;" parent="1" source="39" target="18" edge="1">
                    <mxGeometry y="-60" width="160" relative="1" as="geometry">
                        <mxPoint x="185" y="511" as="sourcePoint"/>
                        <mxPoint x="252" y="328" as="targetPoint"/>
                        <mxPoint as="offset"/>
                    </mxGeometry>
                </mxCell>
                <mxCell id="46" value="" style="endArrow=block;endSize=16;endFill=0;html=1;edgeStyle=elbowEdgeStyle;elbow=vertical;rounded=0;curved=0;" parent="1" source="40" target="18" edge="1">
                    <mxGeometry y="-60" width="160" relative="1" as="geometry">
                        <mxPoint x="195" y="521" as="sourcePoint"/>
                        <mxPoint x="262" y="338" as="targetPoint"/>
                        <mxPoint as="offset"/>
                    </mxGeometry>
                </mxCell>
                <mxCell id="47" value="&lt;span style=&quot;color: rgb(0, 0, 0); text-align: left;&quot;&gt;RegularPolygon&lt;/span&gt;" style="html=1;whiteSpace=wrap;fontFamily=Cantarell;fontSource=https%3A%2F%2Ffonts.googleapis.com%2Fcss%3Ffamily%3DCantarell;" parent="1" vertex="1">
                    <mxGeometry x="-147" y="640" width="110" height="49" as="geometry"/>
                </mxCell>
                <mxCell id="48" value="&lt;span style=&quot;color: rgb(0, 0, 0); text-align: left;&quot;&gt;Star&lt;/span&gt;" style="html=1;whiteSpace=wrap;fontFamily=Cantarell;fontSource=https%3A%2F%2Ffonts.googleapis.com%2Fcss%3Ffamily%3DCantarell;" parent="1" vertex="1">
                    <mxGeometry x="-14" y="640" width="110" height="49" as="geometry"/>
                </mxCell>
                <mxCell id="49" value="&lt;span style=&quot;color: rgb(0, 0, 0); text-align: left;&quot;&gt;Triangle&lt;/span&gt;" style="html=1;whiteSpace=wrap;fontFamily=Cantarell;fontSource=https%3A%2F%2Ffonts.googleapis.com%2Fcss%3Ffamily%3DCantarell;" parent="1" vertex="1">
                    <mxGeometry x="120" y="640" width="110" height="49" as="geometry"/>
                </mxCell>
                <mxCell id="50" value="" style="endArrow=block;endSize=16;endFill=0;html=1;edgeStyle=elbowEdgeStyle;elbow=vertical;rounded=0;curved=0;" parent="1" source="47" target="38" edge="1">
                    <mxGeometry y="-60" width="160" relative="1" as="geometry">
                        <mxPoint x="60" y="600" as="sourcePoint"/>
                        <mxPoint x="-140" y="417" as="targetPoint"/>
                        <mxPoint as="offset"/>
                    </mxGeometry>
                </mxCell>
                <mxCell id="51" value="" style="endArrow=block;endSize=16;endFill=0;html=1;edgeStyle=elbowEdgeStyle;elbow=vertical;rounded=0;curved=0;" parent="1" source="48" target="38" edge="1">
                    <mxGeometry y="-60" width="160" relative="1" as="geometry">
                        <mxPoint x="52" y="651" as="sourcePoint"/>
                        <mxPoint x="185" y="560" as="targetPoint"/>
                        <mxPoint as="offset"/>
                    </mxGeometry>
                </mxCell>
                <mxCell id="53" value="" style="endArrow=block;endSize=16;endFill=0;html=1;edgeStyle=elbowEdgeStyle;elbow=vertical;rounded=0;curved=0;" parent="1" source="49" target="38" edge="1">
                    <mxGeometry y="-60" width="160" relative="1" as="geometry">
                        <mxPoint x="62" y="661" as="sourcePoint"/>
                        <mxPoint x="195" y="570" as="targetPoint"/>
                        <mxPoint as="offset"/>
                    </mxGeometry>
                </mxCell>
                <mxCell id="54" value="&lt;span style=&quot;color: rgb(0, 0, 0); text-align: left;&quot;&gt;Heptagon&lt;/span&gt;" style="html=1;whiteSpace=wrap;fontFamily=Cantarell;fontSource=https%3A%2F%2Ffonts.googleapis.com%2Fcss%3Ffamily%3DCantarell;" parent="1" vertex="1">
                    <mxGeometry x="-284" y="779" width="110" height="49" as="geometry"/>
                </mxCell>
                <mxCell id="55" value="&lt;span style=&quot;color: rgb(0, 0, 0); text-align: left;&quot;&gt;Hexagon&lt;/span&gt;" style="html=1;whiteSpace=wrap;fontFamily=Cantarell;fontSource=https%3A%2F%2Ffonts.googleapis.com%2Fcss%3Ffamily%3DCantarell;" parent="1" vertex="1">
                    <mxGeometry x="-147" y="779" width="110" height="49" as="geometry"/>
                </mxCell>
                <mxCell id="56" value="&lt;span style=&quot;color: rgb(0, 0, 0); text-align: left;&quot;&gt;Pentagon&lt;/span&gt;" style="html=1;whiteSpace=wrap;fontFamily=Cantarell;fontSource=https%3A%2F%2Ffonts.googleapis.com%2Fcss%3Ffamily%3DCantarell;" parent="1" vertex="1">
                    <mxGeometry x="-14" y="779" width="110" height="49" as="geometry"/>
                </mxCell>
                <mxCell id="57" value="" style="endArrow=block;endSize=16;endFill=0;html=1;edgeStyle=elbowEdgeStyle;elbow=vertical;rounded=0;curved=0;" parent="1" source="54" target="47" edge="1">
                    <mxGeometry y="-60" width="160" relative="1" as="geometry">
                        <mxPoint x="-214" y="739" as="sourcePoint"/>
                        <mxPoint x="-348" y="648" as="targetPoint"/>
                        <mxPoint as="offset"/>
                    </mxGeometry>
                </mxCell>
                <mxCell id="58" value="" style="endArrow=block;endSize=16;endFill=0;html=1;edgeStyle=elbowEdgeStyle;elbow=vertical;rounded=0;curved=0;" parent="1" source="55" target="47" edge="1">
                    <mxGeometry y="-60" width="160" relative="1" as="geometry">
                        <mxPoint x="-219" y="789" as="sourcePoint"/>
                        <mxPoint x="-82" y="699" as="targetPoint"/>
                        <mxPoint as="offset"/>
                    </mxGeometry>
                </mxCell>
                <mxCell id="59" value="" style="endArrow=block;endSize=16;endFill=0;html=1;edgeStyle=elbowEdgeStyle;elbow=vertical;rounded=0;curved=0;" parent="1" source="56" target="47" edge="1">
                    <mxGeometry y="-60" width="160" relative="1" as="geometry">
                        <mxPoint x="-209" y="799" as="sourcePoint"/>
                        <mxPoint x="-72" y="709" as="targetPoint"/>
                        <mxPoint as="offset"/>
                    </mxGeometry>
                </mxCell>
                <mxCell id="61" value="&lt;span style=&quot;color: rgb(0, 0, 0); text-align: left;&quot;&gt;StatefulAnimatedGifAnimation&lt;/span&gt;" style="html=1;whiteSpace=wrap;fontFamily=Cantarell;fontSource=https%3A%2F%2Ffonts.googleapis.com%2Fcss%3Ffamily%3DCantarell;" parent="1" vertex="1">
                    <mxGeometry x="780" y="370" width="220" height="49" as="geometry"/>
                </mxCell>
                <mxCell id="62" value="&lt;span style=&quot;color: rgb(0, 0, 0); text-align: left;&quot;&gt;StatefulImagesAnimation&lt;/span&gt;" style="html=1;whiteSpace=wrap;fontFamily=Cantarell;fontSource=https%3A%2F%2Ffonts.googleapis.com%2Fcss%3Ffamily%3DCantarell;" parent="1" vertex="1">
                    <mxGeometry x="780" y="440" width="220" height="49" as="geometry"/>
                </mxCell>
                <mxCell id="63" value="&lt;span style=&quot;color: rgb(0, 0, 0); text-align: left;&quot;&gt;StatefulImagesPrefixAnimation&lt;/span&gt;" style="html=1;whiteSpace=wrap;fontFamily=Cantarell;fontSource=https%3A%2F%2Ffonts.googleapis.com%2Fcss%3Ffamily%3DCantarell;" parent="1" vertex="1">
                    <mxGeometry x="780" y="520" width="220" height="49" as="geometry"/>
                </mxCell>
                <mxCell id="64" value="&lt;span style=&quot;color: rgb(0, 0, 0); text-align: left;&quot;&gt;StatefulSpritesheetAnimation&lt;/span&gt;" style="html=1;whiteSpace=wrap;fontFamily=Cantarell;fontSource=https%3A%2F%2Ffonts.googleapis.com%2Fcss%3Ffamily%3DCantarell;" parent="1" vertex="1">
                    <mxGeometry x="780" y="592" width="220" height="48" as="geometry"/>
                </mxCell>
                <mxCell id="65" value="" style="endArrow=block;endSize=16;endFill=0;html=1;edgeStyle=elbowEdgeStyle;rounded=0;" parent="1" source="61" edge="1">
                    <mxGeometry y="-60" width="160" relative="1" as="geometry">
                        <mxPoint x="780" y="404.5" as="sourcePoint"/>
                        <mxPoint x="750" y="318.0000000000001" as="targetPoint"/>
                        <mxPoint as="offset"/>
                        <Array as="points">
                            <mxPoint x="750" y="400"/>
                        </Array>
                    </mxGeometry>
                </mxCell>
                <mxCell id="67" value="" style="endArrow=block;endSize=16;endFill=0;html=1;edgeStyle=elbowEdgeStyle;rounded=0;exitX=0;exitY=0.5;exitDx=0;exitDy=0;" parent="1" source="62" target="25" edge="1">
                    <mxGeometry y="-60" width="160" relative="1" as="geometry">
                        <mxPoint x="770" y="415" as="sourcePoint"/>
                        <mxPoint x="740" y="328" as="targetPoint"/>
                        <mxPoint as="offset"/>
                        <Array as="points">
                            <mxPoint x="750" y="430"/>
                            <mxPoint x="748" y="330"/>
                            <mxPoint x="730" y="470"/>
                        </Array>
                    </mxGeometry>
                </mxCell>
                <mxCell id="68" value="" style="endArrow=block;endSize=16;endFill=0;html=1;edgeStyle=elbowEdgeStyle;rounded=0;" parent="1" source="63" target="25" edge="1">
                    <mxGeometry y="-60" width="160" relative="1" as="geometry">
                        <mxPoint x="780" y="425" as="sourcePoint"/>
                        <mxPoint x="750" y="338" as="targetPoint"/>
                        <mxPoint as="offset"/>
                        <Array as="points">
                            <mxPoint x="750" y="420"/>
                        </Array>
                    </mxGeometry>
                </mxCell>
                <mxCell id="70" value="" style="endArrow=block;endSize=16;endFill=0;html=1;edgeStyle=elbowEdgeStyle;rounded=0;" parent="1" source="64" edge="1">
                    <mxGeometry y="-60" width="160" relative="1" as="geometry">
                        <mxPoint x="805" y="616.75" as="sourcePoint"/>
                        <mxPoint x="750" y="318.2500000000001" as="targetPoint"/>
                        <mxPoint as="offset"/>
                        <Array as="points">
                            <mxPoint x="750" y="330"/>
                            <mxPoint x="750" y="452.25"/>
                        </Array>
                    </mxGeometry>
                </mxCell>
                <mxCell id="71" value="&lt;i&gt;Joint&lt;/i&gt;&lt;div&gt;&lt;font style=&quot;font-size: 10px;&quot;&gt;{abstract}&lt;/font&gt;&lt;/div&gt;" style="html=1;whiteSpace=wrap;fontFamily=Cantarell;fontSource=https%3A%2F%2Ffonts.googleapis.com%2Fcss%3Ffamily%3DCantarell;" vertex="1" parent="1">
                    <mxGeometry x="1240" y="260" width="110" height="50" as="geometry"/>
                </mxCell>
                <mxCell id="72" value="&lt;span style=&quot;color: rgb(0, 0, 0); text-align: left;&quot;&gt;DistantJoint&lt;/span&gt;" style="html=1;whiteSpace=wrap;fontFamily=Cantarell;fontSource=https%3A%2F%2Ffonts.googleapis.com%2Fcss%3Ffamily%3DCantarell;" vertex="1" parent="1">
                    <mxGeometry x="1320" y="370" width="220" height="49" as="geometry"/>
                </mxCell>
                <mxCell id="73" value="&lt;span style=&quot;color: rgb(0, 0, 0); text-align: left;&quot;&gt;PrismaticJoint&lt;/span&gt;" style="html=1;whiteSpace=wrap;fontFamily=Cantarell;fontSource=https%3A%2F%2Ffonts.googleapis.com%2Fcss%3Ffamily%3DCantarell;" vertex="1" parent="1">
                    <mxGeometry x="1320" y="440" width="220" height="49" as="geometry"/>
                </mxCell>
                <mxCell id="74" value="&lt;span style=&quot;color: rgb(0, 0, 0); text-align: left;&quot;&gt;RevoluteJoint&lt;/span&gt;" style="html=1;whiteSpace=wrap;fontFamily=Cantarell;fontSource=https%3A%2F%2Ffonts.googleapis.com%2Fcss%3Ffamily%3DCantarell;" vertex="1" parent="1">
                    <mxGeometry x="1320" y="520" width="220" height="49" as="geometry"/>
                </mxCell>
                <mxCell id="75" value="&lt;span style=&quot;color: rgb(0, 0, 0); text-align: left;&quot;&gt;RopeJoint&lt;/span&gt;" style="html=1;whiteSpace=wrap;fontFamily=Cantarell;fontSource=https%3A%2F%2Ffonts.googleapis.com%2Fcss%3Ffamily%3DCantarell;" vertex="1" parent="1">
                    <mxGeometry x="1320" y="592" width="220" height="48" as="geometry"/>
                </mxCell>
                <mxCell id="76" value="" style="endArrow=block;endSize=16;endFill=0;html=1;edgeStyle=elbowEdgeStyle;rounded=0;" edge="1" source="72" parent="1" target="71">
                    <mxGeometry y="-60" width="160" relative="1" as="geometry">
                        <mxPoint x="1320" y="404.5" as="sourcePoint"/>
                        <mxPoint x="1290" y="318.0000000000001" as="targetPoint"/>
                        <mxPoint as="offset"/>
                        <Array as="points">
                            <mxPoint x="1290" y="400"/>
                        </Array>
                    </mxGeometry>
                </mxCell>
                <mxCell id="77" value="" style="endArrow=block;endSize=16;endFill=0;html=1;edgeStyle=elbowEdgeStyle;rounded=0;exitX=0;exitY=0.5;exitDx=0;exitDy=0;" edge="1" source="73" parent="1" target="71">
                    <mxGeometry y="-60" width="160" relative="1" as="geometry">
                        <mxPoint x="1310" y="415" as="sourcePoint"/>
                        <mxPoint x="1290" y="318" as="targetPoint"/>
                        <mxPoint as="offset"/>
                        <Array as="points">
                            <mxPoint x="1290" y="430"/>
                            <mxPoint x="1288" y="330"/>
                            <mxPoint x="1270" y="470"/>
                        </Array>
                    </mxGeometry>
                </mxCell>
                <mxCell id="78" value="" style="endArrow=block;endSize=16;endFill=0;html=1;edgeStyle=elbowEdgeStyle;rounded=0;" edge="1" source="74" parent="1" target="71">
                    <mxGeometry y="-60" width="160" relative="1" as="geometry">
                        <mxPoint x="1320" y="425" as="sourcePoint"/>
                        <mxPoint x="1290" y="318" as="targetPoint"/>
                        <mxPoint as="offset"/>
                        <Array as="points">
                            <mxPoint x="1290" y="420"/>
                        </Array>
                    </mxGeometry>
                </mxCell>
                <mxCell id="79" value="" style="endArrow=block;endSize=16;endFill=0;html=1;edgeStyle=elbowEdgeStyle;rounded=0;" edge="1" source="75" parent="1" target="71">
                    <mxGeometry y="-60" width="160" relative="1" as="geometry">
                        <mxPoint x="1345" y="616.75" as="sourcePoint"/>
                        <mxPoint x="1290" y="318.2500000000001" as="targetPoint"/>
                        <mxPoint as="offset"/>
                        <Array as="points">
                            <mxPoint x="1290" y="330"/>
                            <mxPoint x="1290" y="452.25"/>
                        </Array>
                    </mxGeometry>
                </mxCell>
                <mxCell id="81" value="&lt;span style=&quot;color: rgb(0, 0, 0); text-align: left;&quot;&gt;WeldJoint&lt;/span&gt;" style="html=1;whiteSpace=wrap;fontFamily=Cantarell;fontSource=https%3A%2F%2Ffonts.googleapis.com%2Fcss%3Ffamily%3DCantarell;" vertex="1" parent="1">
                    <mxGeometry x="1320" y="670" width="220" height="48" as="geometry"/>
                </mxCell>
                <mxCell id="82" value="" style="endArrow=block;endSize=16;endFill=0;html=1;edgeStyle=elbowEdgeStyle;rounded=0;" edge="1" parent="1" source="81" target="71">
                    <mxGeometry y="-60" width="160" relative="1" as="geometry">
                        <mxPoint x="1320" y="670" as="sourcePoint"/>
                        <mxPoint x="1290" y="286" as="targetPoint"/>
                        <mxPoint as="offset"/>
                        <Array as="points">
                            <mxPoint x="1290" y="700"/>
                            <mxPoint x="1295" y="670"/>
                            <mxPoint x="1250" y="452.25"/>
                        </Array>
                    </mxGeometry>
                </mxCell>
                <mxCell id="83" value="&lt;span style=&quot;color: rgb(0, 0, 0); text-align: left;&quot;&gt;Rectangle&lt;/span&gt;" style="html=1;whiteSpace=wrap;fontFamily=Cantarell;fontSource=https%3A%2F%2Ffonts.googleapis.com%2Fcss%3Ffamily%3DCantarell;" vertex="1" parent="1">
                    <mxGeometry x="254" y="640" width="110" height="49" as="geometry"/>
                </mxCell>
                <mxCell id="84" value="" style="endArrow=block;endSize=16;endFill=0;html=1;edgeStyle=elbowEdgeStyle;elbow=vertical;rounded=0;curved=0;" edge="1" parent="1" source="83" target="39">
                    <mxGeometry y="-60" width="160" relative="1" as="geometry">
                        <mxPoint x="310" y="600" as="sourcePoint"/>
                        <mxPoint x="286" y="510" as="targetPoint"/>
                        <mxPoint as="offset"/>
                    </mxGeometry>
                </mxCell>
                <mxCell id="85" value="&lt;span style=&quot;color: rgb(0, 0, 0); text-align: left;&quot;&gt;ImageFontText&lt;/span&gt;" style="html=1;whiteSpace=wrap;fontFamily=Cantarell;fontSource=https%3A%2F%2Ffonts.googleapis.com%2Fcss%3Ffamily%3DCantarell;fontStyle=0" vertex="1" parent="1">
                    <mxGeometry x="530" y="400" width="110" height="49" as="geometry"/>
                </mxCell>
                <mxCell id="86" value="" style="endArrow=block;endSize=16;endFill=0;html=1;edgeStyle=elbowEdgeStyle;elbow=vertical;rounded=0;curved=0;" edge="1" parent="1" source="85" target="23">
                    <mxGeometry y="-60" width="160" relative="1" as="geometry">
                        <mxPoint x="540" y="370" as="sourcePoint"/>
                        <mxPoint x="160" y="181" as="targetPoint"/>
                        <mxPoint as="offset"/>
                    </mxGeometry>
                </mxCell>
                <mxCell id="87" value="&lt;span style=&quot;color: rgb(0, 0, 0); text-align: left;&quot;&gt;Counter&lt;/span&gt;" style="html=1;whiteSpace=wrap;fontFamily=Cantarell;fontSource=https%3A%2F%2Ffonts.googleapis.com%2Fcss%3Ffamily%3DCantarell;" vertex="1" parent="1">
                    <mxGeometry x="387" y="640" width="110" height="49" as="geometry"/>
                </mxCell>
                <mxCell id="88" value="" style="endArrow=block;endSize=16;endFill=0;html=1;edgeStyle=elbowEdgeStyle;elbow=vertical;rounded=0;curved=0;" edge="1" parent="1" source="87" target="40">
                    <mxGeometry y="-60" width="160" relative="1" as="geometry">
                        <mxPoint x="480" y="610" as="sourcePoint"/>
                        <mxPoint x="100" y="421" as="targetPoint"/>
                        <mxPoint as="offset"/>
                    </mxGeometry>
                </mxCell>
            </root>
        </mxGraphModel>
    </diagram>
</mxfile>
